# xmcd CD database file
#
# Track frame offsets:
#	182
#	25385
#	50007
#	63195
#	83572
#	101610
#	127800
#
# Disc length: 2137 seconds
#
# Revision: 2
# Processed by: cddbd v1.4PL0 Copyright (c) Steve Scherf et al.
# Submitted via: CDex 1.50beta9
#
DISCID=50085707
DTITLE=Michel Petrucciani - Flash
DYEAR=1980
DGENRE=Jazz
TTITLE0=Flash
TTITLE1=In Your Own Street Way
TTITLE2=English Blues
TTITLE3=Here's That Rainy Day
TTITLE4=Giant Steps
TTITLE5=Ballade
TTITLE6=Vaucluse
EXTD=YEAR: 1980
EXTT0=
EXTT1=
EXTT2=
EXTT3=
EXTT4=
EXTT5=
EXTT6=
PLAYORDER=
